static pose
nRows=1
nColumns=258

# File generated from solving marker data for model GIL12
name static pose
datacolumns 258
datarows 1
otherdata 1
range 0.283330 0.283330
endheader
time	pelvis_tx	pelvis_ty	pelvis_tz	pelvis_tilt	pelvis_list	pelvis_rotation	hip_flexion_r	hip_adduction_r	hip_rotation_r	knee_angle_r	ankle_angle_r	hip_flexion_l	hip_adduction_l	hip_rotation_l	knee_angle_l	ankle_angle_l	lumbar_extension	lumbar_bending	lumbar_rotation	subtalar_angle_r	mtp_angle_r	subtalar_angle_l	mtp_angle_l	midhip_tx	midhip_ty	midhip_tz	hip_r_tx	hip_r_ty	hip_r_tz	hip_l_tx	hip_l_ty	hip_l_tz	knee_r_tx	knee_r_ty	knee_r_tz	knee_l_tx	knee_l_ty	knee_l_tz	ankle_r_tx	ankle_r_ty	ankle_r_tz	ankle_l_tx	ankle_l_ty	ankle_l_tz	midasis_tx	midasis_ty	midasis_tz	asis_r_tx	asis_r_ty	asis_r_tz	asis_l_tx	asis_l_ty	asis_l_tz	psis_r_tx	psis_r_ty	psis_r_tz	psis_l_tx	psis_l_ty	psis_l_tz	epicondLat_r_tx	epicondLat_r_ty	epicondLat_r_tz	epicondLat_l_tx	epicondLat_l_ty	epicondLat_l_tz	epicondMed_r_tx	epicondMed_r_ty	epicondMed_r_tz	epicondMed_l_tx	epicondMed_l_ty	epicondMed_l_tz	malleolusLat_r_tx	malleolusLat_r_ty	malleolusLat_r_tz	malleolusLat_l_tx	malleolusLat_l_ty	malleolusLat_l_tz	malleolusMedv_r_tx	malleolusMedv_r_ty	malleolusMedv_r_tz	malleolusMedv_l_tx	malleolusMedv_l_ty	malleolusMedv_l_tz	heel_r_tx	heel_r_ty	heel_r_tz	heel_l_tx	heel_l_ty	heel_l_tz	sternalnotch_tx	sternalnotch_ty	sternalnotch_tz	xyphoidprocess_tx	xyphoidprocess_ty	xyphoidprocess_tz	neck_tx	neck_ty	neck_tz	subclavicle_r_tx	subclavicle_r_ty	subclavicle_r_tz	subclavicle_l_tx	subclavicle_l_ty	subclavicle_l_tz	toe_r_tx	toe_r_ty	toe_r_tz	toe_l_tx	toe_l_ty	toe_l_tz	thighwand_r_tx	thighwand_r_ty	thighwand_r_tz	thighwand_l_tx	thighwand_l_ty	thighwand_l_tz	upperleg1_r_tx	upperleg1_r_ty	upperleg1_r_tz	upperleg1_l_tx	upperleg1_l_ty	upperleg1_l_tz	upperleg2_r_tx	upperleg2_r_ty	upperleg2_r_tz	upperleg2_l_tx	upperleg2_l_ty	upperleg2_l_tz	shankwand_r_tx	shankwand_r_ty	shankwand_r_tz	shankwand_l_tx	shankwand_l_ty	shankwand_l_tz	lowerleg1_r_tx	lowerleg1_r_ty	lowerleg1_r_tz	lowerleg1_l_tx	lowerleg1_l_ty	lowerleg1_l_tz	ground_marker_px	ground_marker_py	ground_marker_pz	ground_marker_px	ground_marker_py	ground_marker_pz	ground_marker_px	ground_marker_py	ground_marker_pz	ground_marker_px	ground_marker_py	ground_marker_pz	ground_marker_px	ground_marker_py	ground_marker_pz	ground_marker_px	ground_marker_py	ground_marker_pz	ground_marker_px	ground_marker_py	ground_marker_pz	ground_marker_px	ground_marker_py	ground_marker_pz	ground_marker_px	ground_marker_py	ground_marker_pz	ground_marker_px	ground_marker_py	ground_marker_pz	ground_marker_px	ground_marker_py	ground_marker_pz	ground_marker_px	ground_marker_py	ground_marker_pz	ground_marker_px	ground_marker_py	ground_marker_pz	ground_marker_px	ground_marker_py	ground_marker_pz	ground_marker_px	ground_marker_py	ground_marker_pz	ground_marker_px	ground_marker_py	ground_marker_pz	ground_marker_px	ground_marker_py	ground_marker_pz	ground_marker_px	ground_marker_py	ground_marker_pz	ground_marker_px	ground_marker_py	ground_marker_pz	ground_marker_px	ground_marker_py	ground_marker_pz	ground_marker_px	ground_marker_py	ground_marker_pz	ground_marker_px	ground_marker_py	ground_marker_pz	ground_marker_px	ground_marker_py	ground_marker_pz	ground_marker_px	ground_marker_py	ground_marker_pz	ground_marker_px	ground_marker_py	ground_marker_pz	ground_marker_px	ground_marker_py	ground_marker_pz	ground_marker_px	ground_marker_py	ground_marker_pz	ground_marker_px	ground_marker_py	ground_marker_pz	ground_marker_px	ground_marker_py	ground_marker_pz	ground_marker_px	ground_marker_py	ground_marker_pz	ground_marker_px	ground_marker_py	ground_marker_pz	ground_marker_px	ground_marker_py	ground_marker_pz	ground_marker_px	ground_marker_py	ground_marker_pz	ground_marker_px	ground_marker_py	ground_marker_pz	ground_marker_px	ground_marker_py	ground_marker_pz	ground_marker_px	ground_marker_py	ground_marker_pz	ground_marker_px	ground_marker_py	ground_marker_pz	ground_marker_px	ground_marker_py	ground_marker_pz	ground_marker_px	ground_marker_py	ground_marker_pz
  0.28333000	  1.45798473	  0.69892468	 -0.33893966	 -1.07436982	 -0.05974900	 -0.93127414	 -0.16994044	 -2.72474382	  0.02493955	 -0.36634512	  0.00000066	  0.58718775	 -2.53891077	  0.01498234	  0.04664260	 -0.00014438	 -8.02359771	 -0.06388440	 -2.12092171	  0.00000000	  0.00000000	  0.00000000	  0.00000000	  1.42043233	  0.63606939	 -0.34286195	  1.43134143	  0.64374132	 -0.28852390	  1.43452994	  0.64497203	 -0.40574801	  1.41250092	  0.34224676	 -0.26939867	  1.41618861	  0.34351749	 -0.41214934	  1.38695388	  0.05456625	 -0.24538271	  1.40251244	  0.05634775	 -0.42977546	  1.49533619	  0.68775404	 -0.34510168	  1.49297397	  0.68683734	 -0.25791735	  1.49769843	  0.68867078	 -0.43228601	  1.37023113	  0.75098491	 -0.30424367	  1.37202413	  0.75111964	 -0.38952861	  1.40972399	  0.34532225	 -0.22368293	  1.40858810	  0.34497166	 -0.45950981	  1.41016284	  0.34076767	 -0.31718909	  1.41665278	  0.34065834	 -0.36786191	  1.37923653	  0.05796418	 -0.21303687	  1.38930716	  0.05878724	 -0.45936339	  1.39394414	  0.05320224	 -0.27216472	  1.41245268	  0.05298863	 -0.39854174	  1.34732927	  0.03815313	 -0.26136613	  1.35215831	  0.03825665	 -0.41998783	  1.44725012	  1.02215608	 -0.33648707	  1.53856589	  0.91333726	 -0.33561794	  1.36760717	  1.03995949	 -0.34513616	  1.46405705	  1.01630817	 -0.29892523	  1.46832727	  1.01498484	 -0.38751259	  1.47599929	  0.04119652	 -0.22813408	  1.48855586	  0.03894843	 -0.45863630	  1.53617198	  0.42694588	 -0.29073453	  1.46785923	  0.41950123	 -0.51574610	  1.46204978	  0.48413615	 -0.24836491	  1.46959096	  0.47998147	 -0.43416795	  1.44833492	  0.39740840	 -0.24562638	  1.46702499	  0.39647856	 -0.41840239	  1.40537185	  0.14763098	 -0.15047239	  1.50267864	  0.16278606	 -0.41220901	  1.40054148	  0.20096041	 -0.21696808	  1.43855216	  0.21971743	 -0.42337322	  1.39534926	  0.63550800	 -0.34077799	  1.41104174	  0.64198196	 -0.28654185	  1.40555155	  0.64429528	 -0.40383559	  1.40254045	  0.34158096	 -0.26441762	  1.41161168	  0.34241670	 -0.41425228	  1.38427782	  0.05465184	 -0.24354979	  1.40297675	  0.05580521	 -0.43118402	  1.47239709	  0.68420196	 -0.34737921	  1.47648036	  0.68248135	 -0.26014355	  1.46831369	  0.68592250	 -0.43461487	  1.35230029	  0.75242329	 -0.29890069	  1.34859633	  0.75201780	 -0.38373047	  1.40319037	  0.34494105	 -0.21854512	  1.40319490	  0.34387761	 -0.46148598	  1.39518642	  0.34052053	 -0.31462464	  1.41726959	  0.33844152	 -0.37046051	  1.37892032	  0.05738962	 -0.21059448	  1.38920939	  0.05795452	 -0.46054536	  1.39249313	  0.05379901	 -0.27031767	  1.41226804	  0.05290499	 -0.39950025	  1.34591365	  0.03816624	 -0.25848565	  1.35196304	  0.03793384	 -0.42089811	  1.43907452	  1.02110243	 -0.33555380	  1.52882648	  0.91098213	 -0.33726910	  1.35917449	  1.04002512	 -0.34421811	  1.45713460	  1.01524615	 -0.29806286	  1.45821047	  1.01331615	 -0.38777792	  1.47543812	  0.04142546	 -0.22833161	  1.48846972	  0.03914881	 -0.45861465	  1.52175128	  0.43195897	 -0.30147299	  1.45674968	  0.42399859	 -0.51761347	  1.45011783	  0.48540056	 -0.24936754	  1.45328701	  0.48385999	 -0.43533447	  1.43952346	  0.39684561	 -0.24653569	  1.46029687	  0.40069407	 -0.42103428	  1.40780151	  0.14655207	 -0.14815491	  1.50136757	  0.16336997	 -0.41480908	  1.39783883	  0.20100892	 -0.21335162	  1.43631649	  0.21955657	 -0.42550379
